<svg viewBox="0 0 256 256" preserveAspectRatio="xMinYMin meet" fill="none" xmlns="http://www.w3.org/2000/svg">
<g clip-path="url(#clip0_1076_1322)">
<rect width="256" height="256" rx="5" fill="black"/>
<path d="M58 31.013H47V105.014H59.5V57.5137C59.5 46.3137 69 39.0137 77.5 39.5137C85.5 39.5137 91.5 45.5137 91.5 56.0137V105.014H104V52.0137C102 35.0137 94 29.513 80 29.013C68.8 28.613 61.3333 37.513 59 42.013L58 31.013Z" fill="white"/>
<path d="M160.5 30.5H149L174 94.5V96.5L170 106.5C168.4 109.3 166.5 111.5 162.5 112H153.5V121.5H164.5C170.9 121.5 176 116.5 178.5 113L210.5 30.5H199L180 82L160.5 30.5Z" fill="white"/>
<path d="M116.5 155L92.5 187.5L85 178.5L102.5 155H116.5Z" fill="white"/>
<path d="M119 229L63.5 155H49.5L76 190.5L47 229H61.5L83 200L104.5 229H119Z" fill="white"/>
<path d="M147 164V154.5H167V135L179.5 130V154.5H207V164H179.5V207C179.5 215 183.5 219.5 190.5 219.5H207V229H190.5C172 229 167 219 167 207V164H147Z" fill="white"/>
</g>
<defs>
<clipPath id="clip0_1076_1322">
<rect width="256" height="256" fill="white"/>
</clipPath>
</defs>
</svg>
