<svg width="30" height="30" viewBox="0 0 30 30" fill="none" xmlns="http://www.w3.org/2000/svg">
<path fill-rule="evenodd" clip-rule="evenodd" d="M20.7455 14.6263C20.7455 12.028 18.7507 9.59161 15.6278 9.59161C14.9903 9.59161 14.4283 9.71496 13.9361 9.91396C13.9398 9.96528 13.9416 10.0171 13.9416 10.0693C13.9416 11.2531 12.982 12.2127 11.7983 12.2127C10.6146 12.2127 9.65496 11.2531 9.65496 10.0693C9.65496 8.88561 10.6146 7.92601 11.7983 7.92601C12.1828 7.92601 12.5437 8.02727 12.8557 8.20459C13.6378 7.8355 14.5609 7.59161 15.6278 7.59161C19.9525 7.59161 22.7455 11.0233 22.7455 14.6263C22.7455 16.0698 22.2027 17.7892 21.0648 19.1613C19.9028 20.5625 18.123 21.5943 15.7275 21.5943C11.3827 21.5943 8.93187 18.1794 8.74424 14.6798C8.71467 14.1283 9.13778 13.6573 9.68927 13.6277C10.2408 13.5982 10.7118 14.0213 10.7414 14.5728C10.8862 17.2746 12.6911 19.5943 15.7275 19.5943C17.4881 19.5943 18.7172 18.8591 19.5253 17.8847C20.3573 16.8813 20.7455 15.6166 20.7455 14.6263Z" fill="#0C0C0D"/>
</svg>