<svg width="6" height="12" viewBox="0 0 6 12" fill="none" xmlns="http://www.w3.org/2000/svg">
<path d="M3.22222 11L3.60798 11.3181L3.22222 11.7859L2.83646 11.3181L3.22222 11ZM5.05868 7.98701C5.23437 7.77396 5.5495 7.74367 5.76255 7.91935C5.9756 8.09504 6.00589 8.41017 5.83021 8.62322L5.05868 7.98701ZM0.614239 8.62322C0.438557 8.41017 0.468849 8.09504 0.681899 7.91935C0.894948 7.74367 1.21008 7.77396 1.38576 7.98701L0.614239 8.62322ZM3.72222 0V11H2.72222V0H3.72222ZM2.83646 10.6819L5.05868 7.98701L5.83021 8.62322L3.60798 11.3181L2.83646 10.6819ZM2.83646 11.3181L0.614239 8.62322L1.38576 7.98701L3.60798 10.6819L2.83646 11.3181Z" fill="#0C0C0D"/>
</svg>
