<svg viewBox="0 0 28 30" fill="none" xmlns="http://www.w3.org/2000/svg">
<path d="M10 6.47974C9.30964 6.47974 8.75 7.03938 8.75 7.72974C8.75 8.42009 9.30964 8.97974 10 8.97974V6.47974ZM17.9052 20.9192L16.7737 21.4503L17.9052 20.9192ZM10.6119 20.9832L11.8113 21.3351L10.6119 20.9832ZM10.5714 21.2647L9.32143 21.2647L10.5714 21.2647ZM11.8113 21.3351L14.628 11.7338L12.2291 11.03L9.41242 20.6313L11.8113 21.3351ZM12.297 11.913L16.7737 21.4503L19.0368 20.388L14.5601 10.8508L12.297 11.913ZM14.6215 11.0086L14.1613 9.53783L11.7754 10.2844L12.2356 11.7552L14.6215 11.0086ZM16.75 21.3441V21.7297H19.25V21.3441H16.75ZM9.32143 21.2647L9.32143 21.7297L11.8214 21.7297L11.8214 21.2647L9.32143 21.2647ZM14.1613 9.53783C13.5919 7.71835 11.9065 6.47974 10 6.47974V8.97974C10.8134 8.97974 11.5325 9.50818 11.7754 10.2844L14.1613 9.53783ZM16.7737 21.4503C16.7581 21.4171 16.75 21.3808 16.75 21.3441H19.25C19.25 21.0136 19.1772 20.6872 19.0368 20.388L16.7737 21.4503ZM9.41242 20.6313C9.35207 20.837 9.32143 21.0503 9.32143 21.2647L11.8214 21.2647C11.8214 21.2885 11.818 21.3122 11.8113 21.3351L9.41242 20.6313Z" fill="currentColor"/>
</svg>
