<svg width="6" height="12" viewBox="0 0 6 12" fill="none" xmlns="http://www.w3.org/2000/svg">
<path d="M3.22222 1L3.60798 0.681899L3.22222 0.214087L2.83646 0.681899L3.22222 1ZM5.05868 4.01299C5.23437 4.22604 5.5495 4.25633 5.76255 4.08065C5.9756 3.90496 6.00589 3.58983 5.83021 3.37678L5.05868 4.01299ZM0.614239 3.37678C0.438557 3.58983 0.468849 3.90496 0.681899 4.08065C0.894948 4.25633 1.21008 4.22604 1.38576 4.01299L0.614239 3.37678ZM3.72222 12V1H2.72222V12H3.72222ZM2.83646 1.3181L5.05868 4.01299L5.83021 3.37678L3.60798 0.681899L2.83646 1.3181ZM2.83646 0.681899L0.614239 3.37678L1.38576 4.01299L3.60798 1.3181L2.83646 0.681899Z" fill="#0C0C0D"/>
</svg>
